<svg width="375" height="194" viewBox="0 0 375 194" fill="none" xmlns="http://www.w3.org/2000/svg">
<g clip-path="url(#clip0_18_2)">
<rect width="374.774" height="193.774" rx="25" fill="#F16F22"/>
<g filter="url(#filter0_d_18_2)">
<path d="M202.001 69.3181C202.053 68.6852 202.042 68.0489 201.971 67.418C201.918 66.9173 201.783 66.4287 201.571 65.9721C201.402 65.603 201.138 65.2851 200.807 65.0501C200.477 64.8306 200.087 64.7182 199.69 64.7281C199.368 64.7132 199.048 64.7738 198.754 64.905C198.46 65.0363 198.201 65.2346 197.997 65.484C197.557 66.0837 197.34 66.8177 197.383 67.5601C197.375 67.9619 197.454 68.3607 197.615 68.729C197.767 69.0657 197.98 69.3709 198.244 69.6291C198.522 69.899 198.834 70.1306 199.173 70.3181C199.538 70.5229 199.916 70.7033 200.305 70.858L202.028 71.548C202.63 71.7887 203.218 72.0639 203.789 72.372C204.361 72.6806 204.91 73.0312 205.43 73.4211C205.948 73.8098 206.41 74.2689 206.801 74.785C207.207 75.3252 207.523 75.9272 207.738 76.5681C207.978 77.3082 208.094 78.083 208.082 78.861C208.101 80.0702 207.914 81.2738 207.528 82.42C207.19 83.4121 206.638 84.3176 205.91 85.072C205.174 85.8138 204.279 86.3799 203.294 86.728C202.155 87.1254 200.956 87.3183 199.75 87.298C198.535 87.3191 197.324 87.1504 196.161 86.798C195.164 86.4871 194.267 85.9182 193.561 85.1491C192.807 84.285 192.264 83.2582 191.973 82.1491C191.58 80.6654 191.389 79.1358 191.403 77.6011H196.723C196.691 78.2794 196.724 78.9592 196.823 79.631C196.898 80.1888 197.067 80.7298 197.323 81.231C197.544 81.6795 197.892 82.0533 198.323 82.3064C198.755 82.5595 199.251 82.6807 199.75 82.655C200.187 82.6633 200.62 82.5816 201.024 82.415C201.383 82.2639 201.703 82.0335 201.96 81.741C202.223 81.4377 202.419 81.0828 202.537 80.699C202.673 80.2652 202.741 79.8127 202.737 79.358C202.75 78.9253 202.657 78.496 202.467 78.1071C202.284 77.7577 202.031 77.4491 201.725 77.2001C201.389 76.9274 201.022 76.6961 200.631 76.5111C200.216 76.3111 199.773 76.111 199.304 75.911C198.745 75.6817 198.178 75.4397 197.604 75.1851C197.03 74.931 196.472 74.6431 195.933 74.3231C195.394 74.0042 194.885 73.6381 194.411 73.229C193.935 72.8175 193.517 72.3436 193.168 71.82C192.8 71.2633 192.517 70.6545 192.329 70.014C192.114 69.2667 192.01 68.4917 192.021 67.7141C192.004 66.6292 192.184 65.5503 192.553 64.5301C192.878 63.6425 193.389 62.835 194.053 62.1621C194.712 61.5082 195.504 61.0046 196.376 60.686C197.343 60.3351 198.366 60.1623 199.395 60.1761C200.549 60.1574 201.697 60.3373 202.79 60.708C203.752 61.0416 204.615 61.611 205.3 62.364C206.02 63.1873 206.55 64.1595 206.851 65.2111C207.23 66.546 207.405 67.9308 207.368 69.3181H202.001Z" fill="white"/>
<path d="M196.381 57.119V53.2531H194.224V49.446H200.858V53.2531C201.342 53.2118 201.813 53.0759 202.244 52.8531C202.605 52.6614 202.916 52.3873 203.151 52.053C203.389 51.7045 203.557 51.3129 203.646 50.9001C203.75 50.4225 203.8 49.9348 203.796 49.446H208.896C208.897 50.4224 208.716 51.3904 208.364 52.3011C208.008 53.2274 207.455 54.0659 206.745 54.759C205.96 55.5116 205.029 56.0954 204.01 56.4741C202.768 56.9288 201.452 57.1475 200.129 57.119H196.381Z" fill="white"/>
<path d="M209.569 68.598C209.546 67.3586 209.785 66.1282 210.269 64.987C210.696 63.9909 211.324 63.0931 212.112 62.349C212.869 61.6446 213.758 61.097 214.728 60.738C215.691 60.3759 216.711 60.1906 217.74 60.191C218.863 60.1781 219.982 60.3452 221.052 60.686C222.005 60.9883 222.88 61.4975 223.614 62.177C224.345 62.8751 224.909 63.7298 225.263 64.677C225.673 65.7993 225.871 66.9882 225.847 68.183V87.016H220.377V68.178C220.44 67.2837 220.206 66.3935 219.711 65.646C219.474 65.3573 219.172 65.1291 218.829 64.9806C218.486 64.8321 218.113 64.7675 217.74 64.792C217.36 64.7851 216.984 64.8729 216.647 65.0475C216.309 65.222 216.021 65.4779 215.807 65.792C215.264 66.6281 214.977 67.6049 214.982 68.602L209.569 68.598Z" fill="white"/>
<path d="M243.587 84.124C242.922 85.1155 242.031 85.9347 240.987 86.514C239.955 87.0569 238.804 87.3319 237.638 87.314C236.667 87.3257 235.701 87.184 234.775 86.894C233.939 86.6385 233.174 86.1901 232.543 85.585C231.912 84.9798 231.431 84.2348 231.141 83.41C230.786 82.3973 230.617 81.3289 230.641 80.256V60.506H236.096V79.106C236.094 79.5745 236.144 80.0418 236.246 80.499C236.337 80.9194 236.522 81.3138 236.786 81.653C237.07 82.0011 237.439 82.2699 237.857 82.433C238.415 82.6402 239.008 82.7366 239.603 82.717C240.214 82.7339 240.82 82.6057 241.371 82.343C241.854 82.0984 242.269 81.7376 242.578 81.293C242.912 80.8004 243.15 80.2486 243.278 79.6671C243.434 78.9775 243.519 78.2738 243.532 77.567V60.506H248.987V87.0161H243.592L243.587 84.124Z" fill="white"/>
<path d="M88.341 145.413C65.417 145.413 49.407 129.932 49.407 107.767V57.3831H88.341V68.41H60.433V107.767C60.433 123.689 71.649 134.387 88.341 134.387V145.413Z" fill="#008ECF"/>
<path d="M91.396 145.413V134.387C108.088 134.387 119.302 123.687 119.302 107.767V68.41H91.396V57.3831H130.329V107.767C130.329 129.932 114.319 145.413 91.396 145.413Z" fill="#9E28B5"/>
<path d="M77.024 81.506L64.53 97.7681L85.365 121.226C86.2217 122.191 87.296 122.937 88.4987 123.403C89.7015 123.87 90.9981 124.043 92.2811 123.908C93.564 123.773 94.7963 123.334 95.8758 122.628C96.9552 121.921 97.8507 120.968 98.488 119.846L140.988 45.06C141.594 43.9942 141.753 42.7319 141.431 41.5491C141.108 40.3663 140.331 39.3592 139.268 38.748L139.074 38.637C138.058 38.0527 136.859 37.8747 135.717 38.1387C134.576 38.4027 133.576 39.0892 132.92 40.06L92.295 100.146L77.024 81.506Z" fill="white"/>
<path d="M150.169 89.961C150.175 88.8645 149.978 87.7763 149.586 86.752C149.22 85.7807 148.683 84.8823 148.002 84.099C147.342 83.3442 146.533 82.7337 145.626 82.306C144.701 81.869 143.69 81.6458 142.667 81.653L144.835 73.679H169.058L173.17 81.653H156.893C157.981 82.5725 158.845 83.7269 159.422 85.029C160.033 86.4448 160.336 87.9743 160.311 89.516V136.278H165.645V144.364H150.169V89.961Z" fill="white"/>
<path d="M186.234 104.993C187.121 104.835 187.967 104.499 188.721 104.006C189.398 103.53 189.943 102.889 190.304 102.145C190.739 101.234 191.02 100.258 191.138 99.2551C191.308 97.9142 191.386 96.5635 191.374 95.212H201.599C201.599 96.824 201.543 98.2877 201.432 99.603C201.34 100.822 201.103 102.025 200.724 103.187C200.376 104.236 199.86 105.221 199.196 106.104C198.465 107.044 197.587 107.86 196.596 108.521C197.538 109.017 198.362 109.709 199.014 110.55C199.547 111.264 199.955 112.062 200.223 112.911C200.47 113.714 200.615 114.545 200.653 115.384C200.69 116.218 200.709 117.005 200.709 117.746V131.277C200.725 132.69 200.518 134.096 200.097 135.445C199.714 136.655 199.147 137.798 198.416 138.835C197.71 139.828 196.863 140.712 195.902 141.46C194.942 142.209 193.892 142.835 192.776 143.322C191.643 143.817 190.46 144.189 189.248 144.433C188.036 144.681 186.803 144.807 185.566 144.808C184.306 144.808 183.05 144.682 181.815 144.433C180.593 144.19 179.401 143.817 178.258 143.322C177.137 142.837 176.082 142.211 175.118 141.46C174.157 140.712 173.309 139.828 172.603 138.835C171.872 137.798 171.305 136.655 170.922 135.445C170.501 134.096 170.295 132.69 170.311 131.277V120.469C170.311 118.839 170.367 117.477 170.478 116.384C170.568 115.39 170.777 114.41 171.103 113.467C171.412 112.61 171.843 111.802 172.381 111.067C173.041 110.18 173.75 109.331 174.506 108.524C174.858 108.117 175.205 107.724 175.548 107.344C175.891 106.964 176.197 106.603 176.466 106.26C176.707 105.957 176.925 105.637 177.118 105.301C177.266 105.067 177.352 104.8 177.368 104.524C177.387 104.316 177.348 104.107 177.255 103.921C177.162 103.734 177.018 103.577 176.841 103.467C176.44 103.254 175.989 103.15 175.535 103.167C174.874 103.173 174.215 103.229 173.562 103.334C172.839 103.445 172.112 103.593 171.381 103.778C170.65 103.963 169.941 104.163 169.255 104.378C168.57 104.59 167.978 104.798 167.477 105.003V96.0031C169.372 95.5524 171.3 95.2514 173.242 95.103C174.752 95.0197 175.822 94.978 176.451 94.978C179.637 94.978 182.064 95.7884 183.731 97.4091C184.593 98.3082 185.261 99.3758 185.691 100.545C186.121 101.714 186.305 102.959 186.231 104.203L186.234 104.993ZM190.679 117.857C190.713 116.822 190.534 115.791 190.151 114.829C189.828 114.069 189.31 113.408 188.651 112.911C187.953 112.407 187.158 112.053 186.317 111.869C185.322 111.646 184.308 111.512 183.289 111.469L181.455 114.081C181.036 114.823 180.749 115.631 180.607 116.471C180.48 117.345 180.42 118.227 180.427 119.11V130.03C180.318 131.691 180.815 133.335 181.827 134.656C182.303 135.165 182.878 135.572 183.516 135.852C184.155 136.131 184.844 136.277 185.541 136.281C186.238 136.285 186.929 136.146 187.57 135.874C188.212 135.602 188.791 135.202 189.273 134.698C190.297 133.367 190.795 131.705 190.673 130.03L190.679 117.857Z" fill="white"/>
<path d="M230.273 123.414C228.757 123.27 227.228 123.371 225.744 123.714C224.534 123.998 223.4 124.544 222.424 125.314C221.527 126.043 220.826 126.984 220.382 128.051C219.904 129.214 219.665 130.462 219.682 131.719V144.361H209.574V108.746C209.537 106.675 209.974 104.623 210.851 102.746C211.68 101.015 212.898 99.4985 214.408 98.314C216.03 97.0673 217.873 96.139 219.84 95.5781C224.347 94.318 229.114 94.318 233.621 95.5781C235.592 96.141 237.439 97.0691 239.067 98.314C240.586 99.4973 241.812 101.014 242.652 102.746C243.538 104.62 243.98 106.673 243.943 108.746V144.367H233.913V110.216C233.921 109.264 233.8 108.315 233.552 107.396C233.328 106.567 232.914 105.801 232.343 105.159C231.73 104.498 230.968 103.993 230.12 103.687C227.934 102.988 225.586 102.983 223.397 103.673C222.564 103.972 221.815 104.468 221.215 105.118C220.651 105.755 220.246 106.517 220.035 107.341C219.793 108.28 219.676 109.247 219.687 110.216V117.273C220.312 116.698 220.997 116.19 221.729 115.759C222.47 115.331 223.258 114.991 224.077 114.745C224.988 114.474 225.923 114.293 226.869 114.204C227.999 114.098 229.134 114.055 230.269 114.078L230.273 123.414Z" fill="white"/>
<path d="M268.95 104.993C269.837 104.835 270.683 104.499 271.437 104.006C272.114 103.53 272.658 102.889 273.02 102.145C273.454 101.234 273.736 100.258 273.854 99.2551C274.023 97.9142 274.102 96.5635 274.09 95.212H284.315C284.315 96.824 284.259 98.2877 284.148 99.603C284.056 100.822 283.818 102.025 283.44 103.187C283.092 104.236 282.576 105.221 281.912 106.104C281.18 107.044 280.302 107.86 279.312 108.521C280.253 109.017 281.077 109.709 281.729 110.55C282.261 111.264 282.67 112.062 282.938 112.911C283.185 113.714 283.33 114.545 283.368 115.384C283.405 116.218 283.423 117.005 283.424 117.746V131.277C283.44 132.69 283.233 134.096 282.812 135.445C282.429 136.655 281.863 137.798 281.132 138.835C280.425 139.827 279.578 140.712 278.617 141.46C277.657 142.209 276.607 142.835 275.491 143.322C274.358 143.817 273.175 144.189 271.963 144.433C270.751 144.681 269.518 144.807 268.281 144.808C267.021 144.808 265.765 144.682 264.53 144.433C263.309 144.189 262.117 143.817 260.974 143.322C259.853 142.837 258.798 142.211 257.834 141.46C256.872 140.712 256.025 139.828 255.319 138.835C254.587 137.798 254.02 136.655 253.638 135.445C253.217 134.096 253.011 132.69 253.027 131.277V120.469C253.027 118.839 253.083 117.477 253.194 116.384C253.283 115.39 253.493 114.41 253.819 113.467C254.128 112.61 254.559 111.802 255.097 111.067C255.757 110.18 256.467 109.331 257.223 108.524C257.574 108.117 257.921 107.724 258.264 107.344C258.607 106.964 258.913 106.603 259.182 106.26C259.423 105.957 259.641 105.637 259.834 105.301C259.982 105.067 260.068 104.8 260.085 104.524C260.104 104.316 260.065 104.107 259.971 103.92C259.878 103.734 259.735 103.577 259.557 103.467C259.156 103.254 258.705 103.15 258.251 103.167C257.59 103.173 256.93 103.229 256.278 103.334C255.555 103.445 254.828 103.593 254.097 103.778C253.366 103.963 252.657 104.163 251.971 104.378C251.286 104.59 250.694 104.798 250.193 105.003V96.0031C252.088 95.5524 254.016 95.2514 255.958 95.103C257.468 95.0197 258.538 94.978 259.167 94.978C262.353 94.978 264.78 95.7884 266.447 97.4091C267.309 98.3082 267.976 99.3758 268.407 100.545C268.837 101.714 269.021 102.959 268.947 104.203L268.95 104.993ZM273.395 117.857C273.429 116.822 273.25 115.791 272.868 114.829C272.544 114.069 272.027 113.408 271.368 112.911C270.669 112.407 269.875 112.053 269.034 111.869C268.038 111.646 267.025 111.512 266.006 111.469L264.172 114.081C263.753 114.823 263.466 115.631 263.325 116.471C263.197 117.345 263.137 118.227 263.144 119.11V130.03C263.035 131.691 263.532 133.334 264.544 134.656C265.02 135.165 265.595 135.572 266.233 135.852C266.872 136.131 267.561 136.277 268.258 136.281C268.955 136.285 269.645 136.146 270.287 135.874C270.929 135.602 271.508 135.202 271.99 134.698C273.013 133.367 273.512 131.705 273.39 130.03L273.395 117.857Z" fill="white"/>
<path d="M290.011 88.711H260.531V76.986H268.839V80.736H290.011V88.711Z" fill="white"/>
<path d="M291.039 107.493C291.017 106.07 291.22 104.653 291.639 103.293C291.998 102.145 292.542 101.064 293.251 100.093C293.908 99.205 294.705 98.4308 295.612 97.801C296.495 97.189 297.446 96.681 298.446 96.287C299.427 95.9005 300.448 95.6212 301.489 95.454C302.472 95.2913 303.466 95.2074 304.462 95.203H310.491V103.733H306.518C305.998 103.74 305.478 103.777 304.962 103.845C304.345 103.921 303.747 104.109 303.198 104.4C302.619 104.708 302.124 105.151 301.753 105.692C301.316 106.394 301.107 107.214 301.153 108.04C301.122 108.974 301.278 109.904 301.612 110.777C301.881 111.441 302.316 112.025 302.876 112.472C303.433 112.898 304.072 113.204 304.752 113.372C305.512 113.564 306.289 113.685 307.072 113.733H310.6V121.485H307.183C306.342 121.476 305.505 121.588 304.696 121.818C303.95 122.038 303.278 122.456 302.751 123.027C302.149 123.714 301.716 124.532 301.487 125.416C301.158 126.689 301.009 128.002 301.042 129.316C301.03 130.315 301.156 131.311 301.417 132.275C301.644 133.113 302.068 133.885 302.654 134.526C303.286 135.184 304.068 135.68 304.932 135.971C306.061 136.342 307.245 136.516 308.432 136.485C309.61 136.527 310.785 136.338 311.891 135.929C312.703 135.61 313.411 135.072 313.933 134.373C314.432 133.665 314.765 132.853 314.906 131.998C315.08 131.002 315.163 129.993 315.156 128.983V95.212H325.297V130.582C325.331 132.658 324.957 134.721 324.197 136.653C323.493 138.402 322.384 139.959 320.96 141.196C319.415 142.502 317.619 143.476 315.681 144.058C313.329 144.762 310.883 145.099 308.429 145.058C306.037 145.083 303.657 144.711 301.386 143.958C299.343 143.282 297.457 142.2 295.843 140.776C294.274 139.369 293.036 137.633 292.217 135.692C291.325 133.535 290.885 131.219 290.925 128.885C290.925 127.878 290.981 126.871 291.091 125.87C291.203 124.858 291.441 123.864 291.8 122.911C292.178 121.917 292.687 120.978 293.314 120.119C294.041 119.143 294.924 118.294 295.926 117.604C295.016 117.023 294.208 116.296 293.537 115.45C292.922 114.671 292.418 113.811 292.037 112.895C291.672 112.016 291.411 111.097 291.259 110.157C291.115 109.276 291.042 108.385 291.039 107.493Z" fill="white"/>
<path d="M304.201 70.473C303.851 72.4445 302.764 74.2091 301.161 75.409C300.319 76.0362 299.376 76.5144 298.373 76.823C297.25 77.1696 296.08 77.34 294.905 77.328C294.127 77.3266 293.351 77.2597 292.585 77.128C291.819 76.9985 291.069 76.7886 290.347 76.502C289.633 76.217 288.958 75.843 288.338 75.389C287.71 74.9284 287.161 74.3688 286.712 73.732C286.232 73.0409 285.866 72.2776 285.627 71.471C285.349 70.5233 285.214 69.5395 285.227 68.552C285.218 67.3913 285.434 66.2398 285.862 65.161C286.277 64.1196 286.913 63.1807 287.726 62.409C288.601 61.5945 289.632 60.9661 290.757 60.562C292.087 60.0904 293.49 59.8617 294.901 59.887C295.524 59.8892 296.146 59.9225 296.766 59.987C297.425 60.0538 298.077 60.1755 298.716 60.351C299.364 60.5297 299.991 60.7744 300.589 61.081C301.193 61.3909 301.746 61.7919 302.229 62.27C302.737 62.7799 303.16 63.3684 303.481 64.013C303.849 64.7684 304.091 65.5792 304.197 66.413H299.585C299.338 65.5894 298.796 64.8857 298.063 64.436C297.155 63.9253 296.122 63.6803 295.081 63.729C294.342 63.7193 293.606 63.8274 292.901 64.049C292.284 64.2437 291.717 64.5695 291.239 65.004C290.768 65.4445 290.405 65.9866 290.176 66.589C289.914 67.2992 289.787 68.0522 289.803 68.809C289.804 69.3851 289.898 69.9571 290.082 70.503C290.269 71.0609 290.573 71.5724 290.974 72.003C291.419 72.473 291.961 72.8405 292.563 73.08C293.319 73.3717 294.126 73.5107 294.937 73.489C295.446 73.4914 295.954 73.4478 296.455 73.359C296.918 73.2771 297.364 73.1186 297.775 72.89C298.189 72.6552 298.553 72.3416 298.846 71.967C299.19 71.5178 299.452 71.0118 299.621 70.472L304.201 70.473Z" fill="white"/>
<path d="M325.44 70.473C325.089 72.4441 324.002 74.2084 322.4 75.409C321.558 76.0362 320.615 76.5144 319.612 76.823C318.489 77.1696 317.319 77.34 316.144 77.328C315.366 77.3266 314.59 77.2597 313.824 77.128C313.058 76.9987 312.308 76.7889 311.586 76.502C310.872 76.217 310.197 75.843 309.577 75.389C308.949 74.9287 308.399 74.369 307.951 73.732C307.471 73.0409 307.105 72.2776 306.866 71.471C306.588 70.5234 306.453 69.5395 306.466 68.552C306.457 67.3912 306.673 66.2398 307.102 65.161C307.517 64.1196 308.153 63.1807 308.966 62.409C309.841 61.5945 310.872 60.9661 311.997 60.562C313.327 60.0904 314.73 59.8617 316.141 59.887C316.764 59.8892 317.386 59.9225 318.006 59.987C318.665 60.0538 319.317 60.1755 319.956 60.351C320.604 60.5297 321.231 60.7744 321.829 61.081C322.433 61.3909 322.986 61.7919 323.469 62.27C323.977 62.7802 324.4 63.3686 324.721 64.013C325.089 64.7684 325.331 65.5792 325.437 66.413H320.828C320.581 65.5894 320.039 64.8857 319.306 64.436C318.398 63.9253 317.365 63.6803 316.324 63.729C315.585 63.7193 314.849 63.8274 314.144 64.049C313.527 64.2434 312.96 64.5693 312.482 65.004C312.011 65.4442 311.648 65.9864 311.419 66.589C311.156 67.2991 311.03 68.0521 311.045 68.809C311.046 69.3851 311.14 69.9573 311.325 70.503C311.512 71.0609 311.816 71.5724 312.217 72.003C312.662 72.473 313.204 72.8405 313.806 73.08C314.563 73.3717 315.369 73.5107 316.18 73.489C316.689 73.4914 317.197 73.4478 317.698 73.359C318.161 73.2773 318.607 73.1188 319.017 72.89C319.431 72.6555 319.795 72.3419 320.089 71.967C320.433 71.5178 320.695 71.0118 320.864 70.472L325.44 70.473Z" fill="white"/>
</g>
</g>
<defs>
<filter id="filter0_d_18_2" x="45.407" y="38.0195" width="284.033" height="115.394" filterUnits="userSpaceOnUse" color-interpolation-filters="sRGB">
<feFlood flood-opacity="0" result="BackgroundImageFix"/>
<feColorMatrix in="SourceAlpha" type="matrix" values="0 0 0 0 0 0 0 0 0 0 0 0 0 0 0 0 0 0 127 0" result="hardAlpha"/>
<feOffset dy="4"/>
<feGaussianBlur stdDeviation="2"/>
<feComposite in2="hardAlpha" operator="out"/>
<feColorMatrix type="matrix" values="0 0 0 0 0 0 0 0 0 0 0 0 0 0 0 0 0 0 0.25 0"/>
<feBlend mode="normal" in2="BackgroundImageFix" result="effect1_dropShadow_18_2"/>
<feBlend mode="normal" in="SourceGraphic" in2="effect1_dropShadow_18_2" result="shape"/>
</filter>
<clipPath id="clip0_18_2">
<rect width="374.774" height="193.774" rx="25" fill="white"/>
</clipPath>
</defs>
</svg>
